<svg width="93" height="78" viewBox="0 0 93 78" fill="none" xmlns="http://www.w3.org/2000/svg">
<path d="M85.6999 23.216C85.6545 23.216 85.6545 23.216 85.6092 23.216C86.1986 21.8557 86.5161 20.4047 86.5161 18.863C86.5161 12.7869 81.5736 7.84447 75.4975 7.84447C73.321 7.84447 71.3259 8.47928 69.6482 9.52219C67.3356 3.94491 61.849 0 55.4556 0C46.9763 0 40.0841 6.89225 40.0841 15.3715C40.0841 16.0063 40.1294 16.6412 40.2201 17.276C40.1747 17.276 40.1294 17.276 40.0841 17.276C34.4161 17.276 29.791 21.901 29.791 27.569C29.791 33.237 34.4161 37.862 40.0841 37.862H85.6999C89.7355 37.862 93.0002 34.5973 93.0002 30.5617C93.0002 26.5261 89.7355 23.216 85.6999 23.216Z" fill="#B9D7FF"/>
<path d="M67.4262 32.8287C67.3808 32.8287 67.3355 32.8287 67.3355 32.8287C68.0156 31.1963 68.4238 29.4279 68.4238 27.5688C68.4238 20.2231 62.4837 14.2831 55.138 14.2831C52.5534 14.2831 50.1049 15.0539 48.0644 16.3235C45.2984 9.56732 38.6782 4.85156 30.9245 4.85156C20.6768 4.85156 12.4242 13.1495 12.4242 23.3518C12.4242 24.1227 12.4695 24.8935 12.5602 25.619C12.5149 25.619 12.4695 25.619 12.4242 25.619C5.57729 25.619 0 31.1963 0 38.0432C0 44.8901 5.57729 50.4674 12.4242 50.4674H67.4262C72.278 50.4674 76.2229 46.5225 76.2229 41.6707C76.2229 36.7736 72.278 32.8287 67.4262 32.8287Z" fill="white"/>
<path d="M29.7645 73.3155C27.9388 77.1329 23.4022 78.682 19.5848 76.9116C15.7674 75.0859 14.2184 70.5493 15.9887 66.7319C17.8144 62.9145 29.5985 55.999 29.5985 55.999C29.5985 55.999 31.5902 69.4981 29.7645 73.3155Z" fill="#B9D7FF"/>
<path d="M48.7405 73.3155C46.9148 77.1329 42.3783 78.682 38.5609 76.9116C34.7435 75.0859 33.1944 70.5493 34.9648 66.7319C36.7905 62.9145 48.5746 55.999 48.5746 55.999C48.5746 55.999 50.5662 69.4981 48.7405 73.3155Z" fill="#B9D7FF"/>
<path d="M67.9378 73.3155C66.1121 77.1329 61.5755 78.682 57.7582 76.9116C53.9408 75.0859 52.3917 70.5493 54.1621 66.7319C55.9878 62.9145 67.7718 55.999 67.7718 55.999C67.7718 55.999 69.7635 69.4981 67.9378 73.3155Z" fill="#B9D7FF"/>
</svg>
